<mxfile host="app.diagrams.net" agent="Mozilla/5.0 (Windows NT 10.0; Win64; x64) AppleWebKit/537.36 (KHTML, like Gecko) Chrome/137.0.0.0 Safari/537.36" version="28.0.4">
  <diagram name="Page-1" id="l6SmWKEAVkDBvY-FSlMx">
    <mxGraphModel dx="524" dy="278" grid="1" gridSize="10" guides="1" tooltips="1" connect="1" arrows="1" fold="1" page="1" pageScale="1" pageWidth="480" pageHeight="270" math="0" shadow="0">
      <root>
        <mxCell id="0" />
        <mxCell id="1" parent="0" />
        <mxCell id="aFMiYu9Ry08bV4Nyn4JL-1" value="" style="rounded=0;whiteSpace=wrap;html=1;fillColor=#333333;strokeColor=#333333;" parent="1" vertex="1">
          <mxGeometry width="480" height="270" as="geometry" />
        </mxCell>
        <mxCell id="aFMiYu9Ry08bV4Nyn4JL-2" value="&lt;br&gt;&lt;div&gt;&lt;font style=&quot;font-size: 9px;&quot;&gt;&lt;br&gt;&lt;/font&gt;&lt;/div&gt;&lt;div&gt;&lt;font style=&quot;font-size: 8px; color: rgb(255, 255, 255);&quot;&gt;class A{ }&amp;nbsp;&lt;/font&gt;&lt;font style=&quot;font-size: 9px;&quot;&gt;&amp;nbsp; &amp;nbsp; &amp;nbsp; &amp;nbsp; &amp;nbsp; &amp;nbsp; &amp;nbsp; &amp;nbsp; &amp;nbsp; &amp;nbsp; &amp;nbsp; &amp;nbsp; &amp;nbsp; &amp;nbsp;&amp;nbsp;&lt;/font&gt;&lt;font style=&quot;font-size: 11px;&quot;&gt;&lt;b&gt;&lt;br&gt;&lt;font style=&quot;color: rgb(102, 255, 102);&quot;&gt;class B extends A{ }&lt;/font&gt;&lt;/b&gt;&lt;/font&gt;&lt;/div&gt;" style="rounded=0;whiteSpace=wrap;html=1;fillColor=#333333;strokeColor=#66FF66;" parent="1" vertex="1">
          <mxGeometry x="20" y="40" width="130" height="90" as="geometry" />
        </mxCell>
        <mxCell id="aFMiYu9Ry08bV4Nyn4JL-3" value="&lt;div&gt;&lt;br&gt;&lt;/div&gt;&lt;div&gt;&lt;br&gt;&lt;/div&gt;&lt;font style=&quot;font-size: 9px;&quot;&gt;&lt;font style=&quot;color: rgb(255, 255, 255);&quot;&gt;class A{ }&amp;nbsp; &amp;nbsp;&lt;/font&gt; &amp;nbsp; &amp;nbsp; &amp;nbsp; &amp;nbsp; &amp;nbsp; &amp;nbsp; &amp;nbsp; &amp;nbsp; &amp;nbsp; &amp;nbsp; &amp;nbsp; &amp;nbsp; &amp;nbsp;&amp;nbsp;&lt;/font&gt;&lt;div&gt;&lt;b&gt;&lt;font style=&quot;color: rgb(102, 255, 102);&quot;&gt;class B extends A{ }&lt;/font&gt;&lt;/b&gt;&lt;/div&gt;&lt;div&gt;&lt;b&gt;&lt;font style=&quot;color: rgb(102, 255, 102);&quot;&gt;class C extends A{ }&lt;/font&gt;&lt;/b&gt;&lt;/div&gt;&lt;div&gt;&lt;b&gt;&lt;font style=&quot;color: rgb(102, 255, 102);&quot;&gt;class D extends A{ }&lt;/font&gt;&lt;/b&gt;&lt;/div&gt;" style="rounded=0;whiteSpace=wrap;html=1;fillColor=#333333;strokeColor=#66FF66;" parent="1" vertex="1">
          <mxGeometry x="175" y="150" width="130" height="90" as="geometry" />
        </mxCell>
        <mxCell id="aFMiYu9Ry08bV4Nyn4JL-4" value="&lt;div&gt;&lt;br&gt;&lt;/div&gt;&lt;div&gt;&lt;br&gt;&lt;/div&gt;&lt;font style=&quot;font-size: 8px; color: rgb(255, 255, 255);&quot;&gt;class B extends A{ }&amp;nbsp; &amp;nbsp; &amp;nbsp; &amp;nbsp; &amp;nbsp; &amp;nbsp; &amp;nbsp; &amp;nbsp; &amp;nbsp; &amp;nbsp; &amp;nbsp; &amp;nbsp; &amp;nbsp;&lt;/font&gt;&lt;div&gt;&lt;font&gt;&lt;font style=&quot;font-size: 8px; color: rgb(255, 255, 255);&quot;&gt;class C { }&amp;nbsp; &amp;nbsp; &amp;nbsp; &amp;nbsp; &amp;nbsp; &amp;nbsp; &amp;nbsp; &amp;nbsp; &amp;nbsp; &amp;nbsp; &amp;nbsp; &amp;nbsp; &amp;nbsp; &amp;nbsp; &amp;nbsp; &amp;nbsp; &amp;nbsp; &amp;nbsp; &amp;nbsp; &amp;nbsp;&amp;nbsp;&lt;br&gt;&lt;/font&gt;&lt;b style=&quot;color: light-dark(rgb(255, 51, 51), rgb(255, 119, 119));&quot;&gt;class D extends B,C{ }&lt;/b&gt;&lt;/font&gt;&lt;/div&gt;" style="rounded=0;whiteSpace=wrap;html=1;fillColor=#333333;strokeColor=#FF3333;" parent="1" vertex="1">
          <mxGeometry x="330" y="40" width="130" height="90" as="geometry" />
        </mxCell>
        <mxCell id="aFMiYu9Ry08bV4Nyn4JL-5" value="&lt;div&gt;&lt;font style=&quot;&quot;&gt;&lt;font style=&quot;font-size: 10px;&quot;&gt;&lt;br&gt;&lt;/font&gt;&lt;/font&gt;&lt;/div&gt;&lt;font style=&quot;&quot;&gt;&lt;font style=&quot;&quot;&gt;&lt;div style=&quot;font-size: 10px;&quot;&gt;&lt;span style=&quot;font-size: 8px; background-color: transparent;&quot;&gt;&lt;br&gt;&lt;font style=&quot;color: rgb(255, 255, 255);&quot;&gt;class A{ }&amp;nbsp; &amp;nbsp; &amp;nbsp; &amp;nbsp; &amp;nbsp; &amp;nbsp; &amp;nbsp; &amp;nbsp; &amp;nbsp; &amp;nbsp; &amp;nbsp; &amp;nbsp; &amp;nbsp; &amp;nbsp; &amp;nbsp; &amp;nbsp; &amp;nbsp; &amp;nbsp;&amp;nbsp;&lt;/font&gt;&lt;/span&gt;&lt;/div&gt;&lt;/font&gt;&lt;font style=&quot;font-size: 8px;&quot;&gt;&lt;font style=&quot;&quot;&gt;&lt;font style=&quot;color: rgb(255, 255, 255);&quot;&gt;class B extends A{ }&amp;nbsp;&lt;/font&gt; &amp;nbsp; &amp;nbsp; &amp;nbsp; &amp;nbsp; &amp;nbsp; &amp;nbsp; &amp;nbsp; &amp;nbsp; &amp;nbsp;&amp;nbsp;&lt;/font&gt;&lt;/font&gt;&lt;br&gt;&lt;font style=&quot;color: rgb(102, 255, 102);&quot;&gt;&lt;b style=&quot;&quot;&gt;class C extends B{ }&lt;/b&gt;&lt;/font&gt;&lt;/font&gt;" style="rounded=0;whiteSpace=wrap;html=1;fillColor=#333333;strokeColor=#66FF66;" parent="1" vertex="1">
          <mxGeometry x="20" y="150" width="130" height="90" as="geometry" />
        </mxCell>
        <mxCell id="aFMiYu9Ry08bV4Nyn4JL-6" value="&lt;div&gt;&lt;br&gt;&lt;/div&gt;&lt;div&gt;&lt;br&gt;&lt;/div&gt;&lt;font style=&quot;font-size: 8px; color: rgb(255, 255, 255);&quot;&gt;&lt;div&gt;&lt;font style=&quot;font-size: 8px; color: rgb(255, 255, 255);&quot;&gt;&lt;br&gt;&lt;/font&gt;&lt;/div&gt;class A { }&amp;nbsp; &amp;nbsp; &amp;nbsp; &amp;nbsp; &amp;nbsp; &amp;nbsp; &amp;nbsp; &amp;nbsp; &amp;nbsp; &amp;nbsp; &amp;nbsp; &amp;nbsp; &amp;nbsp; &amp;nbsp; &amp;nbsp; &amp;nbsp; &amp;nbsp; &amp;nbsp; &amp;nbsp;&lt;/font&gt;&lt;div&gt;&lt;font style=&quot;font-size: 8px; color: rgb(255, 255, 255);&quot;&gt;class B { }&amp;nbsp; &amp;nbsp; &amp;nbsp; &amp;nbsp; &amp;nbsp; &amp;nbsp; &amp;nbsp; &amp;nbsp; &amp;nbsp; &amp;nbsp; &amp;nbsp; &amp;nbsp; &amp;nbsp; &amp;nbsp; &amp;nbsp; &amp;nbsp; &amp;nbsp; &amp;nbsp;&amp;nbsp;&lt;/font&gt;&lt;/div&gt;&lt;div&gt;&lt;b style=&quot;background-color: transparent;&quot;&gt;&lt;font style=&quot;font-size: 11px; color: light-dark(rgb(255, 51, 51), rgb(255, 255, 255));&quot;&gt;class C extends A, B{ }&lt;/font&gt;&lt;font style=&quot;color: light-dark(rgb(255, 51, 51), rgb(255, 255, 255));&quot;&gt;&amp;nbsp; &amp;nbsp; &amp;nbsp; &amp;nbsp; &amp;nbsp; &amp;nbsp; &amp;nbsp; &amp;nbsp; &amp;nbsp; &amp;nbsp; &amp;nbsp; &amp;nbsp; &amp;nbsp; &amp;nbsp; &amp;nbsp; &amp;nbsp; &amp;nbsp; &amp;nbsp;&amp;nbsp;&lt;/font&gt;&lt;/b&gt;&lt;/div&gt;" style="rounded=0;whiteSpace=wrap;html=1;fillColor=#333333;strokeColor=#FF3333;" parent="1" vertex="1">
          <mxGeometry x="330" y="150" width="130" height="90" as="geometry" />
        </mxCell>
        <mxCell id="aFMiYu9Ry08bV4Nyn4JL-8" value="&lt;font style=&quot;font-size: 10px;&quot;&gt;Single inheritance&lt;/font&gt;" style="rounded=1;whiteSpace=wrap;html=1;fillColor=#d5e8d4;strokeColor=#82b366;" parent="1" vertex="1">
          <mxGeometry x="40" y="50" width="90" height="20" as="geometry" />
        </mxCell>
        <mxCell id="aFMiYu9Ry08bV4Nyn4JL-9" value="&lt;span style=&quot;font-size: 10px;&quot;&gt;Multi-level inheritance&lt;/span&gt;" style="rounded=1;whiteSpace=wrap;html=1;fillColor=#d5e8d4;strokeColor=#82b366;" parent="1" vertex="1">
          <mxGeometry x="35" y="160" width="100" height="20" as="geometry" />
        </mxCell>
        <mxCell id="s6H6OoXoU9wdsn8efa6i-1" value="&lt;span style=&quot;font-size: 10px;&quot;&gt;Hierarchal inheritance&lt;/span&gt;" style="rounded=1;whiteSpace=wrap;html=1;fillColor=#d5e8d4;strokeColor=#82b366;" parent="1" vertex="1">
          <mxGeometry x="190" y="160" width="100" height="20" as="geometry" />
        </mxCell>
        <mxCell id="s6H6OoXoU9wdsn8efa6i-2" value="&lt;span style=&quot;font-size: 10px;&quot;&gt;Multiple inheritance&lt;/span&gt;" style="rounded=1;whiteSpace=wrap;html=1;fillColor=#f8cecc;strokeColor=#b85450;" parent="1" vertex="1">
          <mxGeometry x="350" y="160" width="100" height="20" as="geometry" />
        </mxCell>
        <mxCell id="s6H6OoXoU9wdsn8efa6i-3" value="&lt;span style=&quot;font-size: 10px;&quot;&gt;Hybrid inheritance&lt;/span&gt;" style="rounded=1;whiteSpace=wrap;html=1;fillColor=#f8cecc;strokeColor=#b85450;" parent="1" vertex="1">
          <mxGeometry x="345" y="50" width="100" height="20" as="geometry" />
        </mxCell>
        <mxCell id="s6H6OoXoU9wdsn8efa6i-4" value="&lt;b&gt;&lt;font style=&quot;color: rgb(255, 255, 255);&quot;&gt;&lt;font style=&quot;&quot;&gt;I N H E R I T A &lt;/font&gt;&lt;font style=&quot;&quot;&gt;N C E&lt;/font&gt;&lt;/font&gt;&lt;/b&gt;" style="text;html=1;align=center;verticalAlign=middle;whiteSpace=wrap;rounded=0;" parent="1" vertex="1">
          <mxGeometry x="160" y="60" width="170" height="30" as="geometry" />
        </mxCell>
      </root>
    </mxGraphModel>
  </diagram>
</mxfile>
